<mxfile host="app.diagrams.net" agent="Mozilla/5.0 (Macintosh; Intel Mac OS X 10_15_7) AppleWebKit/537.36 (KHTML, like Gecko) Chrome/132.0.0.0 YaBrowser/25.2.0.0 Safari/537.36" version="25.0.3">
  <diagram name="Page-1" id="LQrka3RXtTwaJQfLbMm_">
    <mxGraphModel dx="3235" dy="1628" grid="0" gridSize="10" guides="0" tooltips="1" connect="0" arrows="0" fold="1" page="1" pageScale="1" pageWidth="850" pageHeight="1100" math="0" shadow="0">
      <root>
        <mxCell id="0" />
        <mxCell id="1" parent="0" />
        <mxCell id="XCubr34SPrUNIH3pndpV-11" value="" style="rounded=1;whiteSpace=wrap;html=1;fillColor=#f5f5f5;fontColor=#333333;strokeColor=#666666;" parent="1" vertex="1">
          <mxGeometry x="760" y="290" width="240" height="140" as="geometry" />
        </mxCell>
        <mxCell id="XCubr34SPrUNIH3pndpV-5" style="edgeStyle=orthogonalEdgeStyle;rounded=0;orthogonalLoop=1;jettySize=auto;html=1;entryX=1;entryY=0.5;entryDx=0;entryDy=0;" parent="1" source="XCubr34SPrUNIH3pndpV-1" target="XCubr34SPrUNIH3pndpV-23" edge="1">
          <mxGeometry relative="1" as="geometry">
            <mxPoint x="260" y="370" as="targetPoint" />
          </mxGeometry>
        </mxCell>
        <mxCell id="XCubr34SPrUNIH3pndpV-16" style="edgeStyle=orthogonalEdgeStyle;rounded=0;orthogonalLoop=1;jettySize=auto;html=1;entryX=0.5;entryY=0;entryDx=0;entryDy=0;" parent="1" source="XCubr34SPrUNIH3pndpV-1" target="XCubr34SPrUNIH3pndpV-17" edge="1">
          <mxGeometry relative="1" as="geometry">
            <mxPoint x="630" y="490" as="targetPoint" />
            <Array as="points">
              <mxPoint x="640" y="400" />
            </Array>
          </mxGeometry>
        </mxCell>
        <mxCell id="XCubr34SPrUNIH3pndpV-26" style="edgeStyle=orthogonalEdgeStyle;rounded=0;orthogonalLoop=1;jettySize=auto;html=1;" parent="1" source="XCubr34SPrUNIH3pndpV-1" target="XCubr34SPrUNIH3pndpV-25" edge="1">
          <mxGeometry relative="1" as="geometry">
            <Array as="points">
              <mxPoint x="380" y="490" />
              <mxPoint x="380" y="490" />
            </Array>
          </mxGeometry>
        </mxCell>
        <mxCell id="XCubr34SPrUNIH3pndpV-1" value="Основной сервис&amp;nbsp;&lt;span style=&quot;font-family: &amp;quot;Helvetica Neue&amp;quot;; font-size: 13px; text-align: start; background-color: initial;&quot;&gt;«&lt;/span&gt;&lt;span style=&quot;background-color: initial;&quot;&gt;Кинобездны&lt;/span&gt;&lt;span style=&quot;font-family: &amp;quot;Helvetica Neue&amp;quot;; font-size: 13px; text-align: start; background-color: initial;&quot;&gt;»&lt;/span&gt;&lt;div&gt;(Go)&lt;/div&gt;" style="rounded=1;whiteSpace=wrap;html=1;" parent="1" vertex="1">
          <mxGeometry x="360" y="320" width="220" height="100" as="geometry" />
        </mxCell>
        <mxCell id="XCubr34SPrUNIH3pndpV-2" value="PG" style="shape=cylinder3;whiteSpace=wrap;html=1;boundedLbl=1;backgroundOutline=1;size=15;" parent="1" vertex="1">
          <mxGeometry x="440" y="490" width="60" height="80" as="geometry" />
        </mxCell>
        <mxCell id="XCubr34SPrUNIH3pndpV-3" style="edgeStyle=orthogonalEdgeStyle;rounded=0;orthogonalLoop=1;jettySize=auto;html=1;entryX=0.5;entryY=0;entryDx=0;entryDy=0;entryPerimeter=0;" parent="1" source="XCubr34SPrUNIH3pndpV-1" target="XCubr34SPrUNIH3pndpV-2" edge="1">
          <mxGeometry relative="1" as="geometry" />
        </mxCell>
        <mxCell id="XCubr34SPrUNIH3pndpV-9" style="edgeStyle=orthogonalEdgeStyle;rounded=0;orthogonalLoop=1;jettySize=auto;html=1;entryX=1;entryY=0.5;entryDx=0;entryDy=0;startArrow=classic;startFill=1;" parent="1" source="XCubr34SPrUNIH3pndpV-7" target="XCubr34SPrUNIH3pndpV-1" edge="1">
          <mxGeometry relative="1" as="geometry">
            <Array as="points">
              <mxPoint x="620" y="370" />
              <mxPoint x="620" y="370" />
            </Array>
          </mxGeometry>
        </mxCell>
        <mxCell id="XCubr34SPrUNIH3pndpV-7" value="" style="shape=cylinder3;whiteSpace=wrap;html=1;boundedLbl=1;backgroundOutline=1;size=15;rotation=90;" parent="1" vertex="1">
          <mxGeometry x="740" y="320" width="60" height="100" as="geometry" />
        </mxCell>
        <mxCell id="XCubr34SPrUNIH3pndpV-10" value="RabbitMQ" style="text;html=1;align=center;verticalAlign=middle;whiteSpace=wrap;rounded=0;" parent="1" vertex="1">
          <mxGeometry x="730" y="355" width="60" height="30" as="geometry" />
        </mxCell>
        <mxCell id="XCubr34SPrUNIH3pndpV-12" value="Внешняя рекомендательная система" style="text;html=1;align=center;verticalAlign=middle;whiteSpace=wrap;rounded=0;" parent="1" vertex="1">
          <mxGeometry x="770" y="290" width="230" height="30" as="geometry" />
        </mxCell>
        <mxCell id="XCubr34SPrUNIH3pndpV-15" value="метаданные,&lt;div&gt;контент,&lt;/div&gt;&lt;div&gt;пользователи&lt;/div&gt;&lt;div&gt;и т. д.&lt;/div&gt;" style="shape=callout;whiteSpace=wrap;html=1;perimeter=calloutPerimeter;" parent="1" vertex="1">
          <mxGeometry x="460" y="210" width="220" height="110" as="geometry" />
        </mxCell>
        <mxCell id="XCubr34SPrUNIH3pndpV-17" value="S3" style="rounded=1;whiteSpace=wrap;html=1;fillColor=#f5f5f5;fontColor=#333333;strokeColor=#666666;" parent="1" vertex="1">
          <mxGeometry x="580" y="710" width="120" height="60" as="geometry" />
        </mxCell>
        <mxCell id="XCubr34SPrUNIH3pndpV-18" value="" style="endArrow=classic;html=1;rounded=0;entryX=0.359;entryY=-0.02;entryDx=0;entryDy=0;entryPerimeter=0;" parent="1" target="XCubr34SPrUNIH3pndpV-1" edge="1">
          <mxGeometry width="50" height="50" relative="1" as="geometry">
            <mxPoint x="439" y="80" as="sourcePoint" />
            <mxPoint x="300" y="110" as="targetPoint" />
          </mxGeometry>
        </mxCell>
        <mxCell id="XCubr34SPrUNIH3pndpV-19" value="Пользователь" style="shape=umlActor;verticalLabelPosition=bottom;verticalAlign=top;html=1;outlineConnect=0;" parent="1" vertex="1">
          <mxGeometry x="380" y="20" width="30" height="60" as="geometry" />
        </mxCell>
        <mxCell id="XCubr34SPrUNIH3pndpV-23" value="Платёжная система" style="rounded=1;whiteSpace=wrap;html=1;fillColor=#f5f5f5;fontColor=#333333;strokeColor=#666666;" parent="1" vertex="1">
          <mxGeometry x="-90" y="340" width="120" height="60" as="geometry" />
        </mxCell>
        <mxCell id="XCubr34SPrUNIH3pndpV-25" value="Онлайн-кинотеатры" style="rounded=1;whiteSpace=wrap;html=1;fillColor=#f5f5f5;fontColor=#333333;strokeColor=#666666;" parent="1" vertex="1">
          <mxGeometry x="320" y="710" width="120" height="60" as="geometry" />
        </mxCell>
        <mxCell id="MCrp8uLyCbxljOYk-qPo-1" value="Ноутбуки,&lt;div&gt;смарт ТВ,&lt;/div&gt;&lt;div&gt;мобильные устройства&lt;/div&gt;" style="rounded=1;whiteSpace=wrap;html=1;" parent="1" vertex="1">
          <mxGeometry x="430" y="20" width="120" height="60" as="geometry" />
        </mxCell>
      </root>
    </mxGraphModel>
  </diagram>
</mxfile>
